<?xml version="1.0" standalone="no"?>
<!DOCTYPE svg PUBLIC "-//W3C//DTD SVG 20010904//EN"
 "http://www.w3.org/TR/2001/REC-SVG-20010904/DTD/svg10.dtd">
<svg version="1.0" xmlns="http://www.w3.org/2000/svg"
 width="1230.000000pt" height="1230.000000pt" viewBox="0 0 1230.000000 1230.000000"
 preserveAspectRatio="xMidYMid meet">
<metadata>
Created by potrace 1.16, written by Peter Selinger 2001-2019
</metadata>
<g transform="translate(0.000000,1230.000000) scale(0.100000,-0.100000)"
fill="#000000" stroke="none">
<path d="M5960 12289 c-327 -20 -699 -110 -980 -239 -245 -112 -391 -197 -573
-334 -101 -76 -301 -259 -367 -337 -30 -35 -60 -68 -66 -74 -47 -42 -197 -267
-260 -390 -25 -49 -52 -97 -59 -105 -8 -8 -34 -71 -60 -140 -25 -68 -50 -129
-55 -135 -12 -15 -67 -276 -80 -380 -6 -49 -16 -104 -21 -121 -12 -40 -12
-311 0 -366 6 -24 17 -92 26 -153 18 -125 61 -318 80 -355 7 -14 32 -77 55
-140 24 -63 49 -122 55 -130 7 -8 30 -49 50 -90 62 -124 182 -299 298 -433 70
-80 244 -253 287 -285 19 -15 54 -42 76 -62 74 -63 195 -144 379 -252 112 -65
365 -177 490 -215 516 -158 1016 -183 1515 -78 346 73 698 222 991 419 176
118 190 130 373 299 141 132 292 313 371 447 22 38 47 76 56 87 10 10 38 63
63 118 26 54 50 102 55 105 15 10 112 305 136 412 46 209 63 453 46 661 -12
149 -53 388 -75 441 -7 18 -32 86 -55 152 -76 220 -238 497 -403 692 -147 173
-424 425 -528 480 -14 7 -34 21 -45 31 -11 10 -63 43 -115 73 -401 235 -830
366 -1305 398 -164 11 -172 11 -355 -1z m345 -809 c620 -59 1157 -383 1446
-874 309 -526 272 -1167 -98 -1657 -249 -331 -622 -572 -1048 -678 -283 -70
-660 -68 -943 5 -787 203 -1332 847 -1332 1575 0 401 165 783 470 1089 219
221 516 392 823 474 244 66 460 87 682 66z"/>
<path d="M5975 7043 c-500 -23 -985 -125 -1416 -299 -63 -25 -147 -59 -187
-75 -73 -29 -326 -157 -457 -231 -66 -38 -95 -55 -232 -139 -32 -20 -107 -70
-168 -113 -60 -42 -128 -89 -150 -104 -73 -49 -348 -274 -455 -370 -164 -148
-236 -219 -356 -348 -193 -207 -289 -320 -416 -489 -12 -16 -39 -50 -58 -75
-38 -46 -105 -146 -175 -255 -22 -35 -48 -72 -58 -82 -16 -19 -49 -75 -158
-277 -27 -49 -54 -96 -62 -105 -7 -9 -28 -50 -46 -91 -19 -41 -44 -93 -56
-115 -12 -22 -39 -85 -60 -140 -21 -55 -44 -109 -51 -120 -13 -21 -92 -266
-125 -389 -11 -39 -31 -144 -45 -235 -14 -92 -30 -188 -36 -216 -14 -70 -5
-379 15 -504 23 -140 66 -318 88 -361 10 -19 32 -71 49 -114 68 -172 215 -381
400 -566 112 -112 336 -292 442 -355 18 -11 44 -27 58 -35 510 -311 1154 -538
1930 -679 594 -108 1121 -153 1795 -154 1677 -1 3180 353 4120 969 78 51 136
93 227 162 72 55 260 233 305 288 24 29 46 54 50 56 5 1 26 28 47 58 21 30 45
62 53 70 34 37 129 204 165 290 22 52 44 100 49 107 6 6 23 63 39 126 88 348
89 625 5 1037 -24 119 -121 421 -160 500 -12 25 -34 74 -49 110 -30 75 -131
276 -168 335 -14 23 -40 68 -57 100 -50 95 -182 297 -287 441 -120 164 -155
210 -177 234 -13 14 -39 45 -57 70 -19 25 -37 47 -40 50 -3 3 -23 25 -44 50
-101 117 -174 194 -332 353 -172 174 -222 221 -329 312 -33 28 -80 68 -105 90
-26 22 -79 65 -119 95 -40 30 -90 69 -111 85 -33 26 -191 140 -238 171 -62 41
-222 144 -247 158 -16 10 -59 35 -95 56 -193 114 -465 250 -655 327 -488 199
-940 303 -1450 333 -162 9 -212 10 -350 3z m361 -743 c167 -13 243 -24 449
-65 146 -30 231 -53 470 -130 155 -49 536 -230 725 -343 395 -237 694 -469
1011 -784 317 -316 551 -613 788 -998 119 -195 277 -551 330 -745 99 -361 100
-677 2 -943 -184 -505 -786 -929 -1716 -1209 -174 -52 -457 -123 -655 -163
-123 -25 -517 -85 -689 -105 -470 -55 -1283 -69 -1741 -30 -25 2 -85 7 -135
10 -200 14 -725 90 -902 131 -244 56 -419 102 -558 146 -730 231 -1225 560
-1450 963 -113 201 -167 481 -146 748 67 818 683 1834 1551 2558 72 60 76 64
211 164 491 369 1036 623 1561 729 333 68 611 88 894 66z"/>
</g>
</svg>
