<?xml version="1.0" standalone="no"?>
<!DOCTYPE svg PUBLIC "-//W3C//DTD SVG 20010904//EN"
 "http://www.w3.org/TR/2001/REC-SVG-20010904/DTD/svg10.dtd">
<svg version="1.0" xmlns="http://www.w3.org/2000/svg"
 width="1230.000000pt" height="1230.000000pt" viewBox="0 0 1230.000000 1230.000000"
 preserveAspectRatio="xMidYMid meet">
<metadata>
Created by potrace 1.16, written by Peter Selinger 2001-2019
</metadata>
<g transform="translate(0.000000,1230.000000) scale(0.100000,-0.100000)"
fill="#000000" stroke="none">
<path d="M5960 12289 c-327 -20 -699 -110 -980 -239 -245 -112 -391 -197 -573
-334 -101 -76 -301 -259 -367 -337 -30 -35 -60 -68 -66 -74 -47 -42 -197 -267
-260 -390 -25 -49 -52 -97 -59 -105 -8 -8 -34 -71 -60 -140 -25 -68 -50 -129
-55 -135 -12 -15 -67 -276 -80 -380 -6 -49 -16 -104 -21 -121 -12 -40 -12
-311 0 -366 6 -24 17 -92 26 -153 18 -125 61 -318 80 -355 7 -14 32 -77 55
-140 24 -63 49 -122 55 -130 7 -8 30 -49 50 -90 62 -124 182 -299 298 -433 70
-80 244 -253 287 -285 19 -15 54 -42 76 -62 74 -63 195 -144 379 -252 112 -65
365 -177 490 -215 516 -158 1016 -183 1515 -78 346 73 698 222 991 419 176
118 190 130 373 299 141 132 292 313 371 447 22 38 47 76 56 87 10 10 38 63
63 118 26 54 50 102 55 105 15 10 112 305 136 412 46 209 63 453 46 661 -12
149 -53 388 -75 441 -7 18 -32 86 -55 152 -76 220 -238 497 -403 692 -147 173
-424 425 -528 480 -14 7 -34 21 -45 31 -11 10 -63 43 -115 73 -401 235 -830
366 -1305 398 -164 11 -172 11 -355 -1z m530 -493 c422 -67 754 -211 1111
-482 108 -82 313 -298 374 -394 16 -25 37 -54 46 -65 35 -41 158 -275 179
-340 7 -22 23 -62 35 -90 24 -55 57 -186 76 -310 19 -121 17 -418 -4 -553 -24
-151 -91 -365 -153 -483 -65 -124 -89 -167 -108 -193 -11 -16 -41 -57 -66 -92
-79 -111 -156 -199 -257 -292 -102 -95 -130 -117 -253 -205 -255 -181 -589
-316 -945 -382 -143 -27 -521 -32 -687 -10 -572 75 -1078 345 -1444 771 -28
32 -59 73 -69 89 -10 17 -28 40 -39 53 -37 42 -165 270 -181 322 -4 14 -20 52
-35 85 -30 65 -75 236 -86 325 -4 30 -10 60 -13 65 -20 28 -23 407 -4 470 6
22 19 81 28 130 21 113 50 216 80 280 85 184 170 342 205 383 8 9 33 42 54 72
21 30 53 71 70 90 60 67 260 261 297 288 200 143 253 177 399 249 244 119 507
198 770 229 144 16 487 11 620 -10z"/>
<path d="M5975 7043 c-500 -23 -985 -125 -1416 -299 -63 -25 -147 -59 -187
-75 -73 -29 -326 -157 -457 -231 -66 -38 -95 -55 -232 -139 -32 -20 -107 -70
-168 -113 -60 -42 -128 -89 -150 -104 -73 -49 -348 -274 -455 -370 -164 -148
-236 -219 -356 -348 -193 -207 -289 -320 -416 -489 -12 -16 -39 -50 -58 -75
-38 -46 -105 -146 -175 -255 -22 -35 -48 -72 -58 -82 -16 -19 -49 -75 -158
-277 -27 -49 -54 -96 -62 -105 -7 -9 -28 -50 -46 -91 -19 -41 -44 -93 -56
-115 -12 -22 -39 -85 -60 -140 -21 -55 -44 -109 -51 -120 -13 -21 -92 -266
-125 -389 -11 -39 -31 -144 -45 -235 -14 -92 -30 -188 -36 -216 -14 -70 -5
-379 15 -504 23 -140 66 -318 88 -361 10 -19 32 -71 49 -114 68 -172 215 -381
400 -566 112 -112 336 -292 442 -355 18 -11 44 -27 58 -35 510 -311 1154 -538
1930 -679 594 -108 1121 -153 1795 -154 1677 -1 3180 353 4120 969 78 51 136
93 227 162 72 55 260 233 305 288 24 29 46 54 50 56 5 1 26 28 47 58 21 30 45
62 53 70 34 37 129 204 165 290 22 52 44 100 49 107 6 6 23 63 39 126 88 348
89 625 5 1037 -24 119 -121 421 -160 500 -12 25 -34 74 -49 110 -30 75 -131
276 -168 335 -14 23 -40 68 -57 100 -50 95 -182 297 -287 441 -120 164 -155
210 -177 234 -13 14 -39 45 -57 70 -19 25 -37 47 -40 50 -3 3 -23 25 -44 50
-101 117 -174 194 -332 353 -172 174 -222 221 -329 312 -33 28 -80 68 -105 90
-26 22 -79 65 -119 95 -40 30 -90 69 -111 85 -33 26 -191 140 -238 171 -62 41
-222 144 -247 158 -16 10 -59 35 -95 56 -193 114 -465 250 -655 327 -488 199
-940 303 -1450 333 -162 9 -212 10 -350 3z m466 -488 c368 -35 663 -105 1050
-249 85 -31 355 -154 434 -196 117 -63 161 -87 220 -123 33 -20 74 -44 90 -53
40 -22 266 -173 335 -223 30 -22 71 -51 90 -64 19 -13 55 -40 80 -60 25 -20
65 -52 90 -72 249 -198 630 -569 762 -741 12 -16 28 -32 34 -37 7 -4 29 -30
50 -59 21 -29 49 -63 62 -77 14 -14 38 -46 55 -71 17 -25 36 -49 43 -55 7 -5
30 -38 52 -72 21 -34 46 -68 55 -77 8 -9 33 -44 53 -78 21 -35 44 -69 51 -76
7 -7 29 -43 49 -80 20 -37 46 -80 58 -97 23 -33 97 -171 152 -285 90 -188 104
-220 129 -300 14 -47 33 -97 40 -111 20 -36 61 -207 87 -359 28 -164 30 -412
5 -550 -27 -145 -72 -295 -97 -320 -3 -3 -21 -38 -40 -78 -19 -40 -41 -79 -49
-85 -8 -7 -27 -32 -43 -57 -67 -105 -277 -314 -404 -400 -12 -8 -50 -35 -85
-60 -159 -112 -388 -237 -609 -332 -907 -391 -2131 -597 -3415 -575 -503 9
-1028 53 -1390 117 -33 6 -87 15 -120 21 -273 45 -697 151 -955 239 -159 54
-421 160 -524 212 -209 106 -434 246 -550 342 -81 68 -254 245 -288 295 -17
25 -42 59 -56 75 -39 49 -132 245 -158 336 -13 47 -31 128 -40 180 -21 117
-29 387 -15 455 6 28 20 111 31 185 22 138 51 261 75 315 7 16 25 71 40 120
15 50 40 117 55 150 16 33 45 101 65 150 21 50 43 97 50 105 8 8 27 45 44 82
29 65 102 194 166 293 17 28 42 68 54 90 13 22 36 58 52 80 16 22 50 69 74
105 93 134 126 180 144 197 9 10 28 34 41 53 13 19 42 56 64 81 23 26 75 87
116 135 203 240 623 629 850 789 19 14 60 43 90 65 70 52 245 167 353 234 125
77 447 240 552 280 39 15 86 34 105 42 81 37 396 135 543 169 164 38 366 70
522 84 153 14 453 12 626 -4z"/>
</g>
</svg>
