<?xml version="1.0" standalone="no"?>
<!DOCTYPE svg PUBLIC "-//W3C//DTD SVG 20010904//EN"
 "http://www.w3.org/TR/2001/REC-SVG-20010904/DTD/svg10.dtd">
<svg version="1.0" xmlns="http://www.w3.org/2000/svg"
 width="1780.000000pt" height="1781.000000pt" viewBox="0 0 1780.000000 1781.000000"
 preserveAspectRatio="xMidYMid meet">
<metadata>
Created by potrace 1.16, written by Peter Selinger 2001-2019
</metadata>
<g transform="translate(0.000000,1781.000000) scale(0.100000,-0.100000)"
fill="#000000" stroke="none">
<path d="M8648 17805 c-3 -3 -72 -13 -154 -21 -82 -8 -158 -19 -169 -24 -11
-5 -58 -16 -105 -25 -47 -9 -98 -22 -115 -30 -16 -7 -58 -19 -92 -26 -35 -7
-63 -16 -63 -20 0 -3 -29 -15 -65 -25 -36 -10 -65 -22 -65 -26 0 -3 -22 -14
-49 -23 -55 -18 -237 -110 -262 -131 -8 -8 -20 -14 -25 -14 -9 0 -108 -59
-130 -79 -6 -5 -25 -16 -42 -25 -18 -9 -32 -20 -32 -25 0 -4 -12 -13 -26 -20
-64 -29 -338 -283 -475 -441 -78 -89 -149 -177 -149 -185 0 -3 -22 -33 -48
-68 -45 -58 -174 -247 -198 -292 -30 -54 -57 -103 -73 -130 -17 -29 -86 -154
-102 -185 -21 -41 -139 -291 -139 -295 0 -2 -28 -71 -62 -152 -261 -628 -455
-1452 -532 -2263 -31 -326 -40 -518 -40 -896 l-1 -391 -149 -7 c-82 -3 -218
-6 -302 -6 -91 0 -155 -4 -159 -10 -3 -5 -39 -10 -78 -10 -153 1 -1132 -34
-1137 -40 -3 -3 -196 -14 -430 -24 -234 -9 -434 -21 -445 -26 -11 -4 -164 -17
-340 -29 -409 -26 -790 -59 -835 -71 -19 -5 -109 -17 -200 -26 -91 -9 -172
-19 -180 -24 -8 -4 -60 -13 -115 -20 -55 -7 -111 -17 -125 -22 -14 -5 -63 -18
-110 -28 -221 -49 -326 -111 -414 -245 -193 -294 -322 -658 -381 -1080 -111
-794 51 -1815 469 -2960 52 -142 204 -529 236 -600 15 -33 37 -82 50 -110 12
-27 33 -74 46 -103 13 -29 24 -54 24 -56 0 -16 312 -647 410 -831 92 -172 138
-255 238 -430 35 -60 67 -117 72 -125 123 -203 207 -340 246 -403 27 -42 54
-85 59 -95 16 -26 124 -192 154 -235 14 -21 31 -45 36 -55 13 -20 66 -99 119
-175 23 -32 48 -68 56 -81 38 -57 79 -116 125 -178 28 -37 75 -101 105 -142
30 -42 89 -120 130 -175 41 -54 84 -111 94 -125 11 -15 27 -35 35 -45 9 -10
27 -33 41 -51 73 -97 104 -136 120 -150 9 -8 65 -74 124 -147 59 -73 119 -145
134 -161 15 -15 54 -59 87 -97 33 -38 71 -81 85 -96 14 -15 66 -71 115 -125
115 -124 427 -436 535 -534 46 -41 95 -86 110 -100 80 -72 335 -283 422 -347
68 -51 162 -119 227 -164 35 -24 80 -56 100 -71 20 -15 49 -35 66 -44 16 -9
35 -23 43 -30 7 -8 17 -14 21 -14 4 0 16 -9 28 -19 11 -10 35 -27 53 -36 19
-10 40 -24 48 -31 7 -8 19 -14 25 -14 7 0 25 -11 41 -25 16 -14 34 -25 41 -25
6 0 20 -8 31 -18 10 -10 34 -24 52 -31 19 -8 39 -19 45 -25 7 -6 28 -19 47
-29 45 -23 112 -63 126 -75 5 -5 26 -15 46 -21 20 -7 41 -18 47 -25 6 -7 31
-21 56 -31 25 -9 45 -20 45 -24 0 -4 17 -13 38 -20 20 -8 44 -19 52 -26 8 -6
31 -18 50 -25 19 -7 42 -19 50 -25 8 -7 26 -16 40 -20 14 -4 41 -15 60 -25 19
-10 60 -29 90 -43 30 -13 80 -35 110 -49 30 -14 77 -34 103 -43 26 -10 50 -22
53 -26 3 -5 13 -9 22 -9 10 0 36 -9 57 -20 22 -12 65 -28 95 -37 30 -8 60 -19
66 -24 6 -5 36 -16 65 -25 30 -9 59 -20 64 -24 6 -5 39 -16 75 -25 36 -9 70
-21 75 -25 6 -5 41 -16 79 -24 38 -9 74 -20 80 -25 6 -5 47 -16 91 -26 44 -9
82 -21 85 -25 3 -4 47 -15 98 -25 50 -9 92 -20 92 -24 0 -4 50 -15 110 -25 61
-10 110 -21 110 -25 0 -4 59 -15 130 -25 72 -10 130 -22 130 -25 0 -4 78 -15
173 -26 94 -10 174 -21 177 -25 3 -4 102 -13 220 -19 118 -7 239 -16 269 -22
70 -12 575 -12 638 0 26 5 145 15 263 21 118 7 220 16 225 20 6 4 82 16 170
26 88 10 162 21 165 24 3 4 61 15 130 25 69 10 127 22 130 25 3 4 50 15 105
25 55 10 105 21 110 25 6 5 51 16 100 26 50 9 92 21 95 25 3 5 42 16 85 25 44
10 82 21 85 25 3 4 34 15 70 24 36 9 79 22 95 30 17 7 50 19 75 25 25 7 50 16
55 20 6 4 36 16 67 25 32 9 60 20 63 24 2 5 26 14 52 21 27 7 53 17 59 22 6 4
37 17 69 28 32 11 63 24 69 29 6 5 22 12 36 16 14 4 54 21 90 37 101 47 273
129 290 138 8 5 53 28 100 52 47 24 87 46 90 50 3 4 26 16 50 28 61 29 113 57
126 68 6 6 26 18 44 27 18 9 38 21 44 27 18 16 89 57 129 74 20 10 37 20 37
24 0 4 18 15 40 25 22 10 40 22 40 26 0 5 14 16 31 24 16 9 38 24 48 33 10 9
42 31 70 47 29 17 64 40 79 52 15 13 30 23 34 23 4 0 13 6 20 13 7 6 35 28 61
47 75 54 220 168 261 205 13 11 40 34 61 50 20 17 50 41 65 55 16 14 41 36 57
50 181 157 592 560 753 739 47 52 105 117 130 145 25 27 54 59 65 71 11 11 51
59 89 105 38 47 77 92 87 100 9 8 107 130 217 270 111 140 208 263 217 273 8
9 15 19 15 22 0 3 26 39 58 80 68 90 164 221 251 345 45 65 106 153 121 176 8
12 49 73 91 136 76 113 185 278 204 310 5 9 95 158 198 330 103 172 192 320
197 328 6 8 14 24 20 35 5 11 23 43 39 70 16 28 41 73 55 100 14 28 39 75 57
105 42 71 351 686 408 810 155 338 375 875 456 1110 80 232 117 346 164 500
48 159 131 468 146 540 4 19 15 71 25 115 49 210 97 509 127 785 25 229 25
729 0 915 -36 271 -69 420 -143 640 -53 159 -158 377 -230 478 -19 26 -34 50
-34 53 0 15 -82 108 -117 133 -59 42 -124 77 -168 91 -22 6 -53 18 -70 25 -16
7 -64 18 -105 25 -41 7 -82 16 -90 20 -9 5 -69 16 -135 25 -66 9 -129 20 -141
25 -11 4 -101 16 -200 25 -98 9 -188 21 -199 25 -11 5 -130 16 -265 25 -135 9
-254 20 -265 25 -11 5 -177 16 -370 25 -192 9 -359 21 -370 25 -11 5 -249 16
-530 25 -280 9 -519 21 -530 25 -11 5 -247 13 -525 19 -278 6 -626 14 -775 18
l-270 6 3 91 c4 99 -13 530 -28 721 -63 771 -175 1406 -361 2035 -66 223 -199
591 -269 746 -11 22 -29 65 -40 95 -52 130 -253 513 -352 667 -9 15 -23 37
-30 49 -139 230 -449 595 -658 773 -41 35 -83 72 -94 82 -11 10 -28 20 -38 24
-10 3 -18 9 -18 14 0 4 -15 17 -32 28 -18 12 -51 34 -73 51 -47 35 -215 131
-262 150 -18 8 -33 17 -33 21 0 4 -27 15 -60 25 -33 10 -60 21 -60 25 0 4 -21
13 -47 19 -27 7 -57 18 -68 25 -11 7 -54 21 -95 31 -41 10 -77 21 -80 25 -3 4
-50 15 -105 25 -55 10 -102 21 -105 25 -15 23 -671 65 -692 45z m560 -616 c45
-6 82 -16 82 -21 0 -4 11 -8 24 -8 34 0 169 -29 176 -38 3 -4 36 -15 75 -25
38 -10 72 -21 75 -25 3 -4 31 -16 63 -25 31 -10 57 -22 57 -26 0 -4 18 -13 40
-20 21 -6 45 -17 52 -24 7 -7 32 -21 56 -31 23 -11 42 -22 42 -26 0 -4 18 -15
40 -25 22 -10 40 -21 40 -25 0 -4 12 -12 28 -19 27 -13 32 -17 84 -65 15 -14
34 -29 42 -33 27 -15 128 -108 205 -187 42 -43 88 -91 102 -105 27 -27 172
-210 199 -251 8 -12 22 -32 31 -44 31 -41 85 -121 93 -136 8 -17 21 -39 59
-97 15 -24 27 -45 27 -48 0 -3 11 -22 24 -43 42 -68 151 -284 223 -447 93
-207 192 -479 262 -715 13 -41 29 -95 36 -120 31 -101 84 -322 131 -540 116
-542 184 -1176 197 -1830 l3 -155 -2477 0 c-1804 0 -2480 -3 -2490 -11 -10 -8
-156 -13 -459 -18 l-445 -6 1 308 c2 450 21 776 70 1167 75 602 219 1200 407
1690 156 405 389 843 567 1065 20 25 43 57 52 71 9 14 36 48 60 75 24 26 67
75 97 108 55 62 129 135 198 194 54 46 61 52 117 94 28 20 56 41 61 46 27 22
140 92 151 92 6 0 17 6 23 13 6 8 29 20 51 27 22 7 40 16 40 20 0 4 15 13 33
20 17 7 55 24 83 36 28 13 65 27 82 30 18 4 32 10 32 14 0 4 30 16 68 26 37
10 69 21 72 25 3 4 46 15 95 24 50 9 97 20 107 25 14 8 69 16 218 34 72 8 538
-2 618 -15z m2228 -5746 l329 -6 -7 -101 c-4 -56 -12 -171 -18 -256 -35 -490
-121 -1082 -231 -1585 -34 -154 -33 -213 2 -293 39 -91 131 -162 209 -162 81
0 181 81 214 173 29 82 124 577 171 892 63 416 118 957 127 1234 l3 84 335 -6
c671 -13 1245 -30 1250 -37 3 -4 113 -10 245 -13 414 -11 790 -29 799 -38 6
-5 42 -9 80 -9 137 0 631 -31 648 -40 10 -6 39 -10 65 -10 92 0 458 -32 467
-41 6 -5 28 -9 50 -9 60 0 320 -31 331 -40 6 -4 44 -11 85 -14 84 -8 165 -23
195 -36 11 -4 47 -13 80 -20 75 -15 139 -46 154 -74 6 -11 20 -34 30 -51 157
-243 249 -579 271 -984 34 -623 -99 -1373 -395 -2241 -107 -313 -229 -632
-307 -797 -21 -46 -38 -85 -38 -88 0 -4 -11 -30 -24 -58 -13 -29 -47 -104 -76
-167 -62 -137 -289 -597 -358 -725 -108 -203 -157 -292 -182 -335 -14 -25 -29
-52 -33 -60 -5 -8 -13 -24 -20 -35 -7 -11 -28 -47 -47 -80 -19 -33 -39 -68
-45 -77 -5 -9 -29 -50 -53 -90 -23 -40 -51 -86 -62 -103 -11 -16 -24 -39 -30
-50 -6 -11 -18 -32 -28 -46 -9 -15 -32 -51 -50 -80 -18 -30 -55 -88 -82 -129
-28 -41 -53 -82 -57 -90 -4 -8 -25 -41 -47 -73 -23 -33 -46 -67 -51 -76 -6 -9
-28 -43 -50 -75 -22 -33 -44 -67 -50 -76 -10 -16 -108 -156 -177 -253 -99
-139 -286 -390 -312 -419 -9 -10 -16 -20 -16 -23 0 -6 -266 -341 -289 -364 -9
-9 -49 -57 -90 -106 -41 -50 -79 -94 -85 -100 -6 -5 -36 -39 -66 -74 -30 -36
-64 -74 -75 -86 -11 -12 -69 -75 -130 -140 -133 -144 -401 -412 -515 -515 -45
-41 -94 -86 -109 -100 -15 -14 -53 -47 -85 -75 -31 -27 -68 -59 -80 -70 -46
-40 -85 -71 -156 -125 -40 -30 -99 -76 -132 -103 -33 -26 -64 -47 -68 -47 -4
0 -20 -11 -36 -25 -16 -14 -37 -28 -46 -31 -10 -3 -18 -9 -18 -14 0 -5 -14
-17 -31 -25 -16 -9 -38 -24 -48 -33 -10 -9 -42 -30 -71 -47 -28 -16 -57 -35
-64 -41 -7 -6 -28 -19 -46 -29 -19 -10 -37 -21 -40 -25 -3 -4 -45 -29 -93 -56
-48 -27 -105 -59 -125 -71 -20 -12 -62 -35 -92 -51 -91 -47 -214 -113 -225
-121 -5 -4 -26 -14 -45 -21 -19 -7 -42 -19 -50 -25 -8 -7 -26 -16 -40 -20 -24
-7 -94 -39 -204 -91 -28 -13 -58 -24 -68 -24 -10 0 -18 -4 -18 -8 0 -4 -24
-16 -52 -26 -29 -10 -71 -27 -93 -37 -22 -10 -53 -21 -70 -25 -16 -4 -34 -10
-40 -14 -5 -4 -35 -15 -65 -25 -30 -9 -68 -23 -85 -30 -16 -7 -52 -19 -80 -26
-27 -6 -55 -16 -61 -20 -6 -5 -42 -16 -80 -24 -38 -9 -82 -22 -99 -30 -16 -7
-59 -19 -95 -25 -36 -7 -78 -18 -95 -25 -16 -7 -66 -19 -110 -25 -44 -7 -85
-16 -90 -21 -13 -10 -179 -39 -222 -39 -18 0 -33 -4 -33 -8 0 -10 -118 -28
-247 -38 -46 -4 -83 -10 -83 -14 0 -4 -73 -14 -162 -21 -338 -29 -1363 -12
-1376 22 -2 5 -20 9 -39 9 -53 0 -297 32 -303 40 -3 3 -59 14 -125 24 -66 9
-122 21 -125 25 -3 4 -52 15 -110 25 -57 9 -107 20 -110 25 -3 4 -47 16 -97
26 -51 9 -93 21 -93 24 0 4 -28 13 -62 20 -35 7 -76 19 -93 26 -16 8 -59 21
-95 30 -36 9 -67 20 -70 24 -3 4 -30 13 -60 20 -30 7 -64 19 -75 25 -11 7 -48
20 -82 31 -35 10 -63 21 -63 25 0 4 -15 11 -33 14 -18 3 -50 15 -72 26 -21 11
-60 27 -86 35 -27 9 -51 21 -54 26 -4 5 -13 9 -21 9 -7 0 -43 14 -79 30 -36
17 -95 44 -132 60 -38 17 -75 35 -83 40 -8 5 -31 16 -50 25 -19 8 -42 19 -50
25 -8 5 -31 16 -50 25 -19 8 -42 19 -50 25 -8 5 -31 17 -50 25 -19 9 -41 22
-50 29 -8 7 -32 19 -52 26 -21 6 -38 15 -38 19 0 4 -18 16 -40 26 -22 10 -40
21 -40 25 0 4 -20 15 -45 24 -25 10 -45 22 -45 27 0 5 -6 9 -13 9 -13 0 -110
57 -137 82 -9 7 -32 21 -53 30 -20 10 -37 22 -37 27 0 5 -10 11 -22 15 -13 3
-35 16 -50 28 -15 13 -49 36 -75 52 -82 49 -153 99 -153 106 0 4 -12 12 -27
19 -16 7 -35 19 -43 27 -8 8 -39 30 -68 50 -29 19 -61 42 -70 50 -9 8 -35 29
-57 45 -55 42 -80 61 -160 127 -93 76 -113 93 -146 122 -15 14 -62 57 -105 95
-189 170 -466 447 -649 650 -44 49 -89 98 -100 109 -11 12 -45 50 -75 86 -30
35 -63 73 -73 83 -26 26 -495 615 -515 646 -9 14 -39 56 -67 93 -27 37 -72 99
-100 138 -27 39 -67 93 -87 119 -21 27 -38 52 -38 56 0 4 -15 25 -33 48 -17
23 -36 49 -42 58 -5 9 -50 76 -100 150 -49 73 -92 138 -95 144 -3 5 -31 51
-64 100 -77 119 -89 137 -101 157 -5 9 -60 99 -121 200 -113 186 -163 273
-294 508 -139 251 -409 786 -479 950 -10 25 -36 81 -56 125 -53 114 -249 596
-291 718 -144 412 -209 625 -288 942 -117 471 -167 850 -167 1270 0 360 37
603 131 870 44 127 137 311 171 339 16 14 54 30 86 36 32 6 77 18 100 26 23 7
84 19 135 25 51 6 100 15 109 19 9 5 90 16 180 25 90 9 178 20 194 25 17 5
116 16 220 24 189 15 208 17 360 35 44 5 188 14 320 21 132 7 249 16 260 20
11 5 133 14 270 20 307 14 548 27 765 39 213 12 762 31 911 31 63 0 119 4 125
9 5 5 155 12 334 16 l325 7 2 -54 c3 -58 14 -152 44 -393 58 -459 142 -901
259 -1355 112 -437 125 -469 211 -532 40 -30 51 -33 114 -33 62 0 75 4 111 30
23 17 53 48 67 70 65 105 68 200 9 405 -149 526 -261 1100 -326 1675 l-21 192
125 7 c69 3 249 6 401 6 168 0 279 4 285 10 6 6 158 11 394 13 886 6 3982 6
4286 0z"/>
</g>
</svg>
