<?xml version="1.0" standalone="no"?>
<!DOCTYPE svg PUBLIC "-//W3C//DTD SVG 20010904//EN"
 "http://www.w3.org/TR/2001/REC-SVG-20010904/DTD/svg10.dtd">
<svg version="1.0" xmlns="http://www.w3.org/2000/svg"
 width="1780.000000pt" height="1781.000000pt" viewBox="0 0 1780.000000 1781.000000"
 preserveAspectRatio="xMidYMid meet">
<metadata>
Created by potrace 1.16, written by Peter Selinger 2001-2019
</metadata>
<g transform="translate(0.000000,1781.000000) scale(0.100000,-0.100000)"
fill="#000000" stroke="none">
<path d="M8648 17805 c-3 -3 -72 -13 -154 -21 -82 -8 -158 -19 -169 -24 -11
-5 -58 -16 -105 -25 -47 -9 -98 -22 -115 -30 -16 -7 -58 -19 -92 -26 -35 -7
-63 -16 -63 -20 0 -3 -29 -15 -65 -25 -36 -10 -65 -22 -65 -26 0 -3 -22 -14
-49 -23 -55 -18 -237 -110 -262 -131 -8 -8 -20 -14 -25 -14 -9 0 -108 -59
-130 -79 -6 -5 -25 -16 -42 -25 -18 -9 -32 -20 -32 -25 0 -4 -12 -13 -26 -20
-64 -29 -338 -283 -475 -441 -78 -89 -149 -177 -149 -185 0 -3 -22 -33 -48
-68 -45 -58 -174 -247 -198 -292 -30 -54 -57 -103 -73 -130 -17 -29 -86 -154
-102 -185 -21 -41 -139 -291 -139 -295 0 -2 -28 -71 -62 -152 -261 -628 -455
-1452 -532 -2263 -31 -326 -40 -518 -40 -896 l-1 -391 -149 -7 c-82 -3 -218
-6 -302 -6 -91 0 -155 -4 -159 -10 -3 -5 -39 -10 -78 -10 -153 1 -1132 -34
-1137 -40 -3 -3 -196 -14 -430 -24 -234 -9 -434 -21 -445 -26 -11 -4 -164 -17
-340 -29 -409 -26 -790 -59 -835 -71 -19 -5 -109 -17 -200 -26 -91 -9 -172
-19 -180 -24 -8 -4 -60 -13 -115 -20 -55 -7 -111 -17 -125 -22 -14 -5 -63 -18
-110 -28 -221 -49 -326 -111 -414 -245 -193 -294 -322 -658 -381 -1080 -111
-794 51 -1815 469 -2960 52 -142 204 -529 236 -600 15 -33 37 -82 50 -110 12
-27 33 -74 46 -103 13 -29 24 -54 24 -56 0 -16 312 -647 410 -831 92 -172 138
-255 238 -430 35 -60 67 -117 72 -125 123 -203 207 -340 246 -403 27 -42 54
-85 59 -95 16 -26 124 -192 154 -235 14 -21 31 -45 36 -55 13 -20 66 -99 119
-175 23 -32 48 -68 56 -81 38 -57 79 -116 125 -178 28 -37 75 -101 105 -142
30 -42 89 -120 130 -175 41 -54 84 -111 94 -125 11 -15 27 -35 35 -45 9 -10
27 -33 41 -51 73 -97 104 -136 120 -150 9 -8 65 -74 124 -147 59 -73 119 -145
134 -161 15 -15 54 -59 87 -97 33 -38 71 -81 85 -96 14 -15 66 -71 115 -125
115 -124 427 -436 535 -534 46 -41 95 -86 110 -100 80 -72 335 -283 422 -347
68 -51 162 -119 227 -164 35 -24 80 -56 100 -71 20 -15 49 -35 66 -44 16 -9
35 -23 43 -30 7 -8 17 -14 21 -14 4 0 16 -9 28 -19 11 -10 35 -27 53 -36 19
-10 40 -24 48 -31 7 -8 19 -14 25 -14 7 0 25 -11 41 -25 16 -14 34 -25 41 -25
6 0 20 -8 31 -18 10 -10 34 -24 52 -31 19 -8 39 -19 45 -25 7 -6 28 -19 47
-29 45 -23 112 -63 126 -75 5 -5 26 -15 46 -21 20 -7 41 -18 47 -25 6 -7 31
-21 56 -31 25 -9 45 -20 45 -24 0 -4 17 -13 38 -20 20 -8 44 -19 52 -26 8 -6
31 -18 50 -25 19 -7 42 -19 50 -25 8 -7 26 -16 40 -20 14 -4 41 -15 60 -25 19
-10 60 -29 90 -43 30 -13 80 -35 110 -49 30 -14 77 -34 103 -43 26 -10 50 -22
53 -26 3 -5 13 -9 22 -9 10 0 36 -9 57 -20 22 -12 65 -28 95 -37 30 -8 60 -19
66 -24 6 -5 36 -16 65 -25 30 -9 59 -20 64 -24 6 -5 39 -16 75 -25 36 -9 70
-21 75 -25 6 -5 41 -16 79 -24 38 -9 74 -20 80 -25 6 -5 47 -16 91 -26 44 -9
82 -21 85 -25 3 -4 47 -15 98 -25 50 -9 92 -20 92 -24 0 -4 50 -15 110 -25 61
-10 110 -21 110 -25 0 -4 59 -15 130 -25 72 -10 130 -22 130 -25 0 -4 78 -15
173 -26 94 -10 174 -21 177 -25 3 -4 102 -13 220 -19 118 -7 239 -16 269 -22
70 -12 575 -12 638 0 26 5 145 15 263 21 118 7 220 16 225 20 6 4 82 16 170
26 88 10 162 21 165 24 3 4 61 15 130 25 69 10 127 22 130 25 3 4 50 15 105
25 55 10 105 21 110 25 6 5 51 16 100 26 50 9 92 21 95 25 3 5 42 16 85 25 44
10 82 21 85 25 3 4 34 15 70 24 36 9 79 22 95 30 17 7 50 19 75 25 25 7 50 16
55 20 6 4 36 16 67 25 32 9 60 20 63 24 2 5 26 14 52 21 27 7 53 17 59 22 6 4
37 17 69 28 32 11 63 24 69 29 6 5 22 12 36 16 14 4 54 21 90 37 101 47 273
129 290 138 8 5 53 28 100 52 47 24 87 46 90 50 3 4 26 16 50 28 61 29 113 57
126 68 6 6 26 18 44 27 18 9 38 21 44 27 18 16 89 57 129 74 20 10 37 20 37
24 0 4 18 15 40 25 22 10 40 22 40 26 0 5 14 16 31 24 16 9 38 24 48 33 10 9
42 31 70 47 29 17 64 40 79 52 15 13 30 23 34 23 4 0 13 6 20 13 7 6 35 28 61
47 75 54 220 168 261 205 13 11 40 34 61 50 20 17 50 41 65 55 16 14 41 36 57
50 181 157 592 560 753 739 47 52 105 117 130 145 25 27 54 59 65 71 11 11 51
59 89 105 38 47 77 92 87 100 9 8 107 130 217 270 111 140 208 263 217 273 8
9 15 19 15 22 0 3 26 39 58 80 68 90 164 221 251 345 45 65 106 153 121 176 8
12 49 73 91 136 76 113 185 278 204 310 5 9 95 158 198 330 103 172 192 320
197 328 6 8 14 24 20 35 5 11 23 43 39 70 16 28 41 73 55 100 14 28 39 75 57
105 42 71 351 686 408 810 155 338 375 875 456 1110 80 232 117 346 164 500
48 159 131 468 146 540 4 19 15 71 25 115 49 210 97 509 127 785 25 229 25
729 0 915 -36 271 -69 420 -143 640 -53 159 -158 377 -230 478 -19 26 -34 50
-34 53 0 15 -82 108 -117 133 -59 42 -124 77 -168 91 -22 6 -53 18 -70 25 -16
7 -64 18 -105 25 -41 7 -82 16 -90 20 -9 5 -69 16 -135 25 -66 9 -129 20 -141
25 -11 4 -101 16 -200 25 -98 9 -188 21 -199 25 -11 5 -130 16 -265 25 -135 9
-254 20 -265 25 -11 5 -177 16 -370 25 -192 9 -359 21 -370 25 -11 5 -249 16
-530 25 -280 9 -519 21 -530 25 -11 5 -247 13 -525 19 -278 6 -626 14 -775 18
l-270 6 3 91 c4 99 -13 530 -28 721 -63 771 -175 1406 -361 2035 -66 223 -199
591 -269 746 -11 22 -29 65 -40 95 -52 130 -253 513 -352 667 -9 15 -23 37
-30 49 -139 230 -449 595 -658 773 -41 35 -83 72 -94 82 -11 10 -28 20 -38 24
-10 3 -18 9 -18 14 0 4 -15 17 -32 28 -18 12 -51 34 -73 51 -47 35 -215 131
-262 150 -18 8 -33 17 -33 21 0 4 -27 15 -60 25 -33 10 -60 21 -60 25 0 4 -21
13 -47 19 -27 7 -57 18 -68 25 -11 7 -54 21 -95 31 -41 10 -77 21 -80 25 -3 4
-50 15 -105 25 -55 10 -102 21 -105 25 -15 23 -671 65 -692 45z m488 -1026
c124 -18 453 -100 479 -118 6 -4 26 -13 45 -21 19 -7 62 -26 95 -42 289 -144
534 -353 768 -655 148 -190 175 -230 276 -408 182 -316 298 -579 423 -955 106
-316 157 -509 233 -870 86 -407 154 -998 171 -1486 l7 -189 -2405 0 c-1775 0
-2409 -3 -2419 -11 -10 -8 -129 -13 -380 -16 l-366 -5 -7 105 c-3 57 -4 107
-1 111 2 4 5 102 6 217 5 518 65 991 205 1624 40 181 155 565 221 735 231 603
500 1052 823 1376 151 152 299 266 449 346 237 125 272 139 586 228 192 55
549 70 791 34z m2202 -5776 l264 -6 -7 -71 c-47 -521 -92 -843 -167 -1211 -72
-354 -77 -391 -67 -454 16 -99 64 -170 139 -204 37 -16 64 -19 154 -18 98 2
113 5 157 30 56 32 102 85 123 144 16 48 71 311 116 557 55 307 108 694 145
1055 9 88 17 161 19 162 11 12 1980 -65 2266 -87 69 -6 226 -17 350 -25 584
-38 1101 -102 1430 -176 76 -18 100 -27 122 -51 38 -41 151 -274 192 -399 111
-332 135 -762 71 -1271 -59 -460 -252 -1179 -455 -1693 -37 -93 -75 -195 -84
-225 -20 -62 -161 -377 -272 -608 -41 -84 -74 -155 -74 -158 0 -12 -149 -301
-238 -462 -54 -97 -111 -202 -127 -232 -49 -93 -134 -239 -226 -387 -49 -78
-89 -144 -89 -147 0 -8 -169 -269 -261 -404 -46 -68 -106 -158 -134 -200 -27
-42 -105 -151 -172 -242 -67 -91 -137 -185 -155 -210 -17 -25 -84 -109 -147
-188 -64 -79 -134 -167 -156 -196 -53 -70 -194 -235 -270 -316 -33 -36 -82
-91 -108 -122 -166 -199 -612 -626 -891 -851 -216 -175 -636 -465 -719 -496
-15 -6 -51 -26 -80 -44 -121 -77 -440 -239 -597 -303 -58 -23 -154 -63 -215
-88 -60 -25 -116 -46 -123 -46 -8 0 -28 -7 -45 -15 -18 -8 -84 -30 -147 -48
-63 -19 -169 -50 -235 -69 -267 -79 -732 -165 -1010 -188 -71 -6 -169 -15
-216 -20 -112 -13 -671 -13 -774 0 -44 5 -156 17 -250 25 -93 9 -205 22 -250
30 -44 8 -156 28 -250 44 -254 44 -329 63 -715 176 -69 20 -139 43 -157 51
-17 8 -36 14 -42 14 -13 0 -154 54 -276 104 -44 19 -91 37 -105 41 -96 29
-580 274 -815 414 -155 91 -530 340 -617 409 -40 32 -93 72 -118 90 -90 64
-126 95 -314 261 -280 248 -716 699 -914 944 -26 32 -100 122 -165 200 -64 78
-143 178 -174 222 -32 44 -101 136 -154 205 -53 69 -140 188 -192 265 -214
313 -366 542 -373 560 -4 11 -24 45 -44 75 -66 98 -232 373 -278 460 -24 47
-68 126 -97 175 -81 139 -203 369 -242 453 -19 43 -63 133 -98 202 -91 180
-230 486 -264 583 -16 45 -56 147 -89 227 -104 250 -210 557 -268 778 -165
627 -206 839 -235 1232 -12 163 -7 429 11 585 28 236 90 446 194 653 l65 131
83 25 c46 14 142 35 213 46 182 29 655 86 875 105 102 8 259 22 350 30 167 15
345 26 720 45 113 6 216 13 230 15 59 10 1638 71 1645 63 2 -2 13 -69 25 -148
63 -436 137 -807 240 -1210 112 -437 125 -470 210 -531 36 -26 56 -32 124 -39
125 -11 177 -5 228 26 79 48 117 125 118 241 0 72 -6 99 -99 443 -77 284 -199
915 -227 1166 l-6 61 28 7 c153 33 4100 56 5182 29z"/>
</g>
</svg>
