<?xml version="1.0" standalone="no"?>
<!DOCTYPE svg PUBLIC "-//W3C//DTD SVG 20010904//EN"
 "http://www.w3.org/TR/2001/REC-SVG-20010904/DTD/svg10.dtd">
<svg version="1.0" xmlns="http://www.w3.org/2000/svg"
 width="1476.000000pt" height="1475.000000pt" viewBox="0 0 1476.000000 1475.000000"
 preserveAspectRatio="xMidYMid meet">
<metadata>
Created by potrace 1.16, written by Peter Selinger 2001-2019
</metadata>
<g transform="translate(0.000000,1475.000000) scale(0.100000,-0.100000)"
fill="#000000" stroke="none">
<path d="M10895 14734 c-99 -7 -229 -20 -290 -29 -198 -28 -504 -92 -550 -115
-11 -5 -108 -40 -215 -76 -107 -36 -200 -70 -205 -74 -6 -5 -78 -40 -160 -78
-213 -99 -609 -336 -695 -417 -14 -13 -57 -47 -97 -77 -89 -66 -274 -231 -375
-335 -292 -299 -469 -532 -696 -918 -52 -88 -200 -396 -238 -493 -15 -40 -31
-69 -35 -65 -4 5 -29 51 -56 103 -340 653 -774 1174 -1368 1643 -69 55 -234
166 -335 227 -59 36 -116 73 -127 81 -33 30 -375 196 -533 259 -220 89 -265
103 -544 176 -366 95 -482 109 -916 109 -350 0 -458 -8 -659 -50 -148 -30
-513 -141 -581 -176 -19 -10 -96 -46 -170 -79 -74 -34 -152 -74 -175 -90 -22
-15 -83 -53 -135 -85 -309 -186 -689 -558 -934 -915 -664 -966 -937 -2261
-740 -3505 73 -464 190 -868 382 -1320 67 -158 367 -774 521 -1069 100 -191
327 -605 423 -771 137 -235 153 -261 221 -375 39 -63 85 -142 104 -175 19 -33
40 -67 47 -75 7 -8 47 -71 90 -140 43 -69 147 -228 230 -355 169 -256 164
-248 244 -361 31 -44 86 -122 122 -173 36 -51 83 -118 105 -150 39 -55 112
-153 177 -239 18 -24 49 -65 68 -91 83 -115 158 -211 315 -406 36 -44 97 -120
136 -170 40 -49 95 -117 123 -149 28 -33 60 -72 71 -87 20 -28 231 -273 314
-365 25 -28 89 -99 141 -158 433 -492 1093 -1147 1659 -1647 169 -149 227
-200 296 -256 39 -31 93 -77 121 -102 28 -25 88 -75 134 -111 45 -36 110 -87
144 -113 33 -27 75 -61 91 -76 32 -29 170 -135 317 -243 49 -36 102 -77 117
-90 15 -14 56 -44 91 -68 36 -24 86 -61 111 -82 26 -21 87 -64 135 -96 49 -32
96 -65 105 -74 32 -32 210 -140 252 -153 33 -10 52 -10 89 0 45 11 202 107
240 146 10 10 62 50 115 89 151 111 433 334 774 615 40 33 85 71 99 85 14 14
52 48 85 75 33 27 87 74 121 105 33 30 114 102 179 160 65 58 142 128 170 155
28 28 106 102 173 165 252 237 640 630 878 889 184 200 218 238 399 446 133
153 309 363 410 489 39 48 95 119 125 156 91 113 166 210 238 304 37 49 94
124 127 167 33 44 84 112 113 152 28 39 73 101 100 136 26 36 65 90 87 122 22
32 67 95 99 141 60 85 236 343 356 523 85 128 260 402 335 525 32 52 75 122
95 155 20 33 63 105 95 160 32 55 77 132 100 170 88 148 124 211 131 230 4 11
20 38 35 61 15 22 41 68 58 103 17 35 35 68 40 75 5 6 29 50 53 96 25 47 91
173 148 280 168 318 543 1095 657 1365 109 257 141 331 178 410 43 94 69 159
135 350 183 527 272 1140 241 1674 -16 296 -33 430 -87 706 -75 381 -202 759
-370 1100 -78 160 -86 174 -178 330 -213 361 -490 695 -811 981 -98 86 -251
202 -359 271 -45 28 -99 64 -121 80 -55 38 -365 199 -445 230 -36 13 -110 40
-165 60 -55 19 -104 39 -110 43 -13 11 -148 45 -295 75 -158 32 -314 53 -483
65 -78 5 -167 12 -197 14 -30 2 -136 -2 -235 -10z m318 -1284 c119 -18 271
-53 453 -104 74 -21 304 -120 414 -178 262 -140 594 -406 794 -636 120 -138
282 -362 375 -515 237 -395 375 -778 472 -1307 39 -215 36 -615 -6 -890 -9
-52 -20 -129 -25 -171 -25 -185 -116 -497 -209 -711 -22 -51 -58 -138 -79
-193 -22 -55 -72 -170 -112 -255 -40 -85 -96 -213 -126 -283 -45 -109 -113
-252 -276 -582 -93 -190 -302 -588 -366 -699 -41 -71 -82 -148 -92 -171 -10
-23 -70 -129 -134 -235 -64 -106 -116 -196 -116 -200 0 -4 -48 -83 -106 -176
-59 -93 -118 -189 -132 -214 -69 -124 -531 -812 -690 -1027 -40 -54 -98 -134
-130 -178 -64 -90 -144 -195 -342 -448 -75 -94 -151 -192 -170 -217 -18 -25
-64 -79 -100 -120 -36 -41 -83 -97 -104 -125 -41 -55 -209 -250 -351 -406 -49
-55 -112 -125 -139 -157 -165 -193 -709 -737 -1035 -1037 -90 -82 -198 -182
-240 -220 -108 -100 -408 -352 -646 -542 -66 -53 -140 -113 -165 -133 -25 -20
-79 -62 -120 -93 -41 -31 -102 -76 -134 -101 -33 -26 -65 -46 -72 -46 -7 0
-52 29 -101 65 -48 36 -144 106 -213 157 -216 158 -486 364 -556 425 -27 22
-89 73 -139 111 -49 38 -101 80 -114 92 -13 13 -67 59 -120 103 -53 44 -125
105 -161 137 -36 32 -90 80 -121 106 -105 91 -324 287 -365 328 -23 23 -133
129 -245 236 -208 199 -610 610 -728 744 -36 41 -106 119 -156 174 -136 149
-338 382 -386 443 -24 30 -78 95 -121 144 -43 50 -91 108 -106 130 -14 22 -60
79 -101 127 -41 48 -104 128 -140 177 -36 50 -114 153 -173 230 -60 77 -108
142 -108 145 0 3 -35 51 -79 108 -43 57 -115 157 -160 223 -45 66 -117 172
-160 235 -107 157 -325 489 -341 520 -7 14 -68 114 -137 223 -68 108 -127 205
-130 215 -4 9 -53 95 -110 189 -57 95 -120 208 -141 250 -21 43 -69 132 -108
198 -61 104 -132 241 -328 630 -83 164 -283 589 -304 645 -11 30 -42 114 -70
185 -92 238 -178 551 -201 731 -5 38 -18 132 -30 209 -29 198 -41 379 -41 602
0 261 30 475 112 798 22 88 47 186 54 217 42 170 210 550 341 768 407 682 988
1117 1665 1249 230 45 332 54 568 55 217 0 301 -7 530 -45 502 -82 984 -295
1469 -647 308 -224 648 -578 884 -920 157 -228 366 -629 481 -922 31 -80 61
-155 66 -166 15 -38 74 -97 115 -115 76 -35 166 -16 228 47 42 42 53 69 93
216 78 297 158 501 311 798 168 326 337 557 614 837 226 228 368 340 696 547
148 94 548 273 682 305 20 5 98 25 174 45 151 38 340 72 487 86 151 14 475 4
633 -20z"/>
</g>
</svg>
