<?xml version="1.0" standalone="no"?>
<!DOCTYPE svg PUBLIC "-//W3C//DTD SVG 20010904//EN"
 "http://www.w3.org/TR/2001/REC-SVG-20010904/DTD/svg10.dtd">
<svg version="1.0" xmlns="http://www.w3.org/2000/svg"
 width="1476.000000pt" height="1475.000000pt" viewBox="0 0 1476.000000 1475.000000"
 preserveAspectRatio="xMidYMid meet">
<metadata>
Created by potrace 1.16, written by Peter Selinger 2001-2019
</metadata>
<g transform="translate(0.000000,1475.000000) scale(0.100000,-0.100000)"
fill="#000000" stroke="none">
<path d="M10895 14734 c-99 -7 -229 -20 -290 -29 -198 -28 -504 -92 -550 -115
-11 -5 -108 -40 -215 -76 -107 -36 -200 -70 -205 -74 -6 -5 -78 -40 -160 -78
-213 -99 -609 -336 -695 -417 -14 -13 -57 -47 -97 -77 -89 -66 -274 -231 -375
-335 -292 -299 -469 -532 -696 -918 -52 -88 -200 -396 -238 -493 -15 -40 -31
-69 -35 -65 -4 5 -29 51 -56 103 -340 653 -774 1174 -1368 1643 -69 55 -234
166 -335 227 -59 36 -116 73 -127 81 -33 30 -375 196 -533 259 -220 89 -265
103 -544 176 -366 95 -482 109 -916 109 -350 0 -458 -8 -659 -50 -148 -30
-513 -141 -581 -176 -19 -10 -96 -46 -170 -79 -74 -34 -152 -74 -175 -90 -22
-15 -83 -53 -135 -85 -309 -186 -689 -558 -934 -915 -664 -966 -937 -2261
-740 -3505 73 -464 190 -868 382 -1320 67 -158 367 -774 521 -1069 100 -191
327 -605 423 -771 137 -235 153 -261 221 -375 39 -63 85 -142 104 -175 19 -33
40 -67 47 -75 7 -8 47 -71 90 -140 43 -69 147 -228 230 -355 169 -256 164
-248 244 -361 31 -44 86 -122 122 -173 36 -51 83 -118 105 -150 39 -55 112
-153 177 -239 18 -24 49 -65 68 -91 83 -115 158 -211 315 -406 36 -44 97 -120
136 -170 40 -49 95 -117 123 -149 28 -33 60 -72 71 -87 20 -28 231 -273 314
-365 25 -28 89 -99 141 -158 433 -492 1093 -1147 1659 -1647 169 -149 227
-200 296 -256 39 -31 93 -77 121 -102 28 -25 88 -75 134 -111 45 -36 110 -87
144 -113 33 -27 75 -61 91 -76 32 -29 170 -135 317 -243 49 -36 102 -77 117
-90 15 -14 56 -44 91 -68 36 -24 86 -61 111 -82 26 -21 87 -64 135 -96 49 -32
96 -65 105 -74 32 -32 210 -140 252 -153 33 -10 52 -10 89 0 45 11 202 107
240 146 10 10 62 50 115 89 151 111 433 334 774 615 40 33 85 71 99 85 14 14
52 48 85 75 33 27 87 74 121 105 33 30 114 102 179 160 65 58 142 128 170 155
28 28 106 102 173 165 252 237 640 630 878 889 184 200 218 238 399 446 133
153 309 363 410 489 39 48 95 119 125 156 91 113 166 210 238 304 37 49 94
124 127 167 33 44 84 112 113 152 28 39 73 101 100 136 26 36 65 90 87 122 22
32 67 95 99 141 60 85 236 343 356 523 85 128 260 402 335 525 32 52 75 122
95 155 20 33 63 105 95 160 32 55 77 132 100 170 88 148 124 211 131 230 4 11
20 38 35 61 15 22 41 68 58 103 17 35 35 68 40 75 5 6 29 50 53 96 25 47 91
173 148 280 168 318 543 1095 657 1365 109 257 141 331 178 410 43 94 69 159
135 350 183 527 272 1140 241 1674 -16 296 -33 430 -87 706 -75 381 -202 759
-370 1100 -78 160 -86 174 -178 330 -213 361 -490 695 -811 981 -98 86 -251
202 -359 271 -45 28 -99 64 -121 80 -55 38 -365 199 -445 230 -36 13 -110 40
-165 60 -55 19 -104 39 -110 43 -13 11 -148 45 -295 75 -158 32 -314 53 -483
65 -78 5 -167 12 -197 14 -30 2 -136 -2 -235 -10z m430 -504 c272 -21 479 -65
745 -158 156 -55 471 -209 555 -272 28 -21 64 -45 80 -54 31 -16 91 -60 217
-158 81 -63 365 -340 444 -433 97 -116 324 -431 324 -450 0 -4 13 -25 29 -48
43 -63 181 -336 241 -476 172 -403 277 -845 311 -1301 13 -170 7 -561 -11
-725 -30 -277 -95 -580 -180 -834 -43 -128 -155 -407 -220 -546 -15 -33 -39
-87 -53 -120 -60 -142 -101 -233 -195 -440 -55 -121 -109 -238 -121 -260 -11
-22 -90 -179 -175 -350 -84 -170 -191 -380 -236 -465 -46 -85 -98 -182 -115
-215 -18 -33 -52 -96 -77 -140 -25 -44 -67 -120 -95 -170 -79 -142 -121 -215
-143 -245 -11 -15 -20 -31 -20 -34 0 -5 -35 -65 -200 -335 -19 -32 -48 -80
-64 -107 -16 -27 -48 -78 -71 -114 -38 -59 -203 -313 -265 -410 -27 -42 -238
-352 -296 -435 -104 -149 -158 -223 -248 -345 -56 -74 -111 -151 -125 -170
-13 -19 -41 -57 -62 -85 -22 -27 -69 -88 -104 -135 -36 -47 -92 -119 -124
-160 -33 -41 -99 -124 -147 -185 -114 -144 -159 -199 -380 -460 -196 -232
-333 -385 -633 -705 -163 -174 -579 -592 -702 -704 -35 -33 -130 -120 -210
-195 -80 -75 -195 -179 -254 -231 -60 -52 -133 -118 -164 -146 -31 -28 -78
-68 -106 -89 -27 -21 -57 -46 -66 -56 -15 -17 -138 -118 -279 -230 -41 -33
-86 -70 -100 -82 -28 -25 -184 -146 -305 -238 -44 -33 -109 -82 -144 -110 -63
-49 -64 -49 -90 -33 -14 9 -37 27 -51 40 -14 12 -66 49 -115 82 -50 32 -106
72 -125 88 -19 17 -66 52 -105 79 -38 27 -88 64 -110 82 -22 18 -78 61 -123
95 -177 133 -237 179 -281 217 -57 49 -183 151 -264 214 -34 27 -82 67 -107
91 -25 23 -67 60 -95 81 -57 45 -158 132 -254 220 -36 33 -95 85 -131 115 -36
30 -79 68 -96 85 -17 16 -77 73 -134 125 -288 263 -796 771 -1035 1034 -49 55
-122 134 -160 175 -106 115 -409 461 -495 567 -19 24 -71 86 -115 139 -147
177 -305 378 -494 626 -35 46 -76 100 -91 119 -28 37 -260 356 -291 402 -10
14 -46 66 -81 115 -66 93 -423 630 -481 723 -19 30 -54 87 -79 125 -24 39 -54
86 -65 105 -11 19 -64 106 -117 193 -53 87 -96 160 -96 163 0 2 -12 23 -27 47
-15 23 -44 72 -65 110 -21 37 -57 100 -79 140 -177 308 -307 552 -502 937
-276 547 -397 822 -504 1140 -106 318 -182 665 -218 1000 -25 228 -30 646 -11
885 9 110 19 216 22 235 58 390 130 666 272 1051 27 72 161 355 204 432 56 97
151 249 203 322 161 229 396 484 555 603 41 31 89 68 105 83 17 15 71 53 120
83 50 30 109 67 133 82 72 45 362 170 468 203 105 32 327 84 459 107 152 26
411 37 596 25 158 -10 361 -35 379 -46 4 -3 57 -14 116 -25 170 -33 339 -78
454 -123 286 -110 357 -139 380 -156 14 -9 73 -41 133 -70 59 -29 133 -69 165
-90 31 -21 91 -57 132 -82 41 -24 88 -56 105 -70 16 -14 59 -45 95 -69 36 -23
90 -64 120 -89 30 -25 88 -73 128 -105 39 -32 72 -61 72 -65 0 -4 26 -28 58
-55 70 -59 308 -311 367 -388 24 -32 63 -81 87 -110 68 -82 243 -335 292 -423
10 -16 40 -68 67 -115 115 -197 270 -539 373 -821 19 -54 82 -121 140 -149 63
-30 121 -26 186 13 82 48 113 96 139 213 103 451 303 904 580 1314 182 268
507 620 725 784 41 31 78 61 81 67 6 8 88 66 254 178 20 14 81 51 136 83 89
53 152 84 400 203 111 53 473 171 625 203 286 61 623 84 905 62z"/>
</g>
</svg>
