<?xml version="1.0" standalone="no"?>
<!DOCTYPE svg PUBLIC "-//W3C//DTD SVG 20010904//EN"
 "http://www.w3.org/TR/2001/REC-SVG-20010904/DTD/svg10.dtd">
<svg version="1.0" xmlns="http://www.w3.org/2000/svg"
 width="1162.000000pt" height="1158.000000pt" viewBox="0 0 1162.000000 1158.000000"
 preserveAspectRatio="xMidYMid meet">
<metadata>
Created by potrace 1.16, written by Peter Selinger 2001-2019
</metadata>
<g transform="translate(0.000000,1158.000000) scale(0.100000,-0.100000)"
fill="#000000" stroke="none">
<path d="M5325 11574 c-420 -21 -823 -84 -1215 -189 -195 -53 -513 -159 -620
-208 -19 -9 -107 -48 -195 -86 -88 -39 -200 -92 -250 -119 -447 -241 -643
-371 -1025 -681 -262 -211 -670 -635 -873 -906 -84 -113 -306 -442 -356 -530
-13 -22 -56 -96 -96 -165 -325 -561 -568 -1312 -650 -2010 -8 -74 -18 -151
-20 -170 -25 -200 -25 -711 0 -910 3 -19 14 -111 25 -205 60 -493 207 -1018
422 -1505 98 -223 139 -296 368 -670 213 -346 491 -683 871 -1055 222 -217
585 -508 844 -677 83 -54 305 -188 311 -188 3 0 30 -16 60 -35 63 -41 342
-181 459 -232 44 -19 116 -51 160 -70 704 -303 1584 -465 2313 -425 429 24
769 80 1162 193 211 60 374 118 630 224 102 42 298 134 357 166 32 18 105 58
163 89 341 184 742 467 1037 731 l122 110 69 -73 c38 -40 134 -142 213 -225
396 -419 609 -643 759 -798 91 -93 230 -240 310 -325 300 -323 566 -592 596
-605 95 -40 193 -23 264 46 52 51 73 98 73 169 0 71 -19 112 -85 181 -29 31
-145 155 -258 275 -112 121 -275 291 -360 379 -86 88 -223 232 -305 320 -82
88 -212 225 -290 305 -154 158 -371 389 -540 573 l-107 117 23 29 c13 16 56
67 94 113 143 169 323 416 455 623 34 55 80 125 100 155 42 62 248 469 303
600 208 492 346 984 401 1432 52 419 45 914 -20 1357 -44 306 -185 820 -323
1184 -110 287 -284 658 -375 799 -17 26 -56 89 -86 140 -82 139 -269 415 -383
568 -228 303 -656 744 -952 979 -271 216 -542 403 -710 492 -22 12 -94 52
-160 90 -262 150 -729 338 -1074 434 -262 73 -599 135 -894 165 -187 19 -584
32 -742 24z m725 -498 c436 -46 826 -141 1240 -300 214 -82 609 -276 746 -367
21 -14 66 -43 99 -64 74 -47 307 -212 395 -279 269 -207 639 -573 865 -856 77
-96 330 -452 391 -550 345 -549 627 -1267 738 -1880 122 -672 97 -1351 -74
-1995 -108 -405 -343 -945 -582 -1335 -173 -283 -572 -789 -651 -826 -48 -22
-94 -68 -116 -114 -27 -59 -314 -318 -533 -481 -456 -340 -935 -596 -1433
-766 -345 -118 -620 -181 -975 -225 -237 -30 -803 -32 -1035 -5 -509 60 -990
190 -1485 402 -156 66 -514 252 -653 339 -276 171 -598 408 -777 571 -129 117
-400 386 -485 481 -98 110 -241 294 -347 447 -43 61 -96 137 -117 167 -349
502 -654 1326 -740 2000 -32 251 -44 484 -38 725 13 460 70 823 191 1228 117
385 189 574 322 847 119 242 172 333 317 550 231 346 374 525 607 764 333 340
670 608 1068 847 496 297 1090 518 1680 624 122 22 419 59 552 69 126 9 691
-3 830 -18z"/>
</g>
</svg>
