<?xml version="1.0" standalone="no"?>
<!DOCTYPE svg PUBLIC "-//W3C//DTD SVG 20010904//EN"
 "http://www.w3.org/TR/2001/REC-SVG-20010904/DTD/svg10.dtd">
<svg version="1.0" xmlns="http://www.w3.org/2000/svg"
 width="1162.000000pt" height="1158.000000pt" viewBox="0 0 1162.000000 1158.000000"
 preserveAspectRatio="xMidYMid meet">
<metadata>
Created by potrace 1.16, written by Peter Selinger 2001-2019
</metadata>
<g transform="translate(0.000000,1158.000000) scale(0.100000,-0.100000)"
fill="#000000" stroke="none">
<path d="M5325 11574 c-420 -21 -823 -84 -1215 -189 -195 -53 -513 -159 -620
-208 -19 -9 -107 -48 -195 -86 -88 -39 -200 -92 -250 -119 -447 -241 -643
-371 -1025 -681 -262 -211 -670 -635 -873 -906 -84 -113 -306 -442 -356 -530
-13 -22 -56 -96 -96 -165 -325 -561 -568 -1312 -650 -2010 -8 -74 -18 -151
-20 -170 -25 -200 -25 -711 0 -910 3 -19 14 -111 25 -205 60 -493 207 -1018
422 -1505 98 -223 139 -296 368 -670 213 -346 491 -683 871 -1055 222 -217
585 -508 844 -677 83 -54 305 -188 311 -188 3 0 30 -16 60 -35 63 -41 342
-181 459 -232 44 -19 116 -51 160 -70 704 -303 1584 -465 2313 -425 429 24
769 80 1162 193 211 60 374 118 630 224 102 42 298 134 357 166 32 18 105 58
163 89 146 79 209 116 326 192 166 108 516 366 617 455 l37 33 78 -78 c42 -43
131 -136 197 -207 66 -70 148 -156 183 -191 34 -35 60 -64 57 -64 -3 0 34 -40
82 -88 89 -90 205 -212 323 -341 36 -39 142 -149 235 -245 229 -234 294 -304
287 -310 -3 -3 3 -6 13 -6 10 0 16 -3 12 -6 -5 -6 79 -92 196 -200 88 -81 94
-85 172 -114 117 -43 203 -52 239 -25 11 8 32 15 47 15 15 0 31 5 34 10 3 6
13 10 21 10 8 0 41 18 73 39 51 35 82 65 131 127 23 29 55 102 64 144 2 14 11
44 17 68 11 34 11 50 0 85 -7 23 -15 57 -18 75 -3 18 -9 35 -14 38 -5 3 -9 13
-9 22 0 34 -123 179 -348 408 -34 35 -60 64 -57 64 2 0 -48 53 -113 118 -64
66 -146 151 -182 191 -36 40 -89 97 -118 127 -29 30 -50 54 -48 54 2 0 -62 67
-142 148 -191 192 -271 279 -264 286 3 3 -2 6 -11 6 -8 0 -19 9 -22 20 -3 11
-14 20 -22 20 -9 0 -14 3 -10 6 3 3 -36 47 -86 97 -128 128 -307 317 -300 317
3 0 -5 9 -18 21 -16 14 -20 24 -14 34 6 7 46 60 91 117 98 125 248 338 334
473 34 55 80 125 100 155 42 62 248 469 303 600 208 492 346 984 401 1432 52
419 45 914 -20 1357 -44 306 -185 820 -323 1184 -110 287 -284 658 -375 799
-17 26 -56 89 -86 140 -82 139 -269 415 -383 568 -228 303 -656 744 -952 979
-271 216 -542 403 -710 492 -22 12 -94 52 -160 90 -262 150 -729 338 -1074
434 -262 73 -599 135 -894 165 -187 19 -584 32 -742 24z m752 -873 c269 -30
392 -54 698 -135 281 -74 679 -238 950 -392 415 -236 704 -454 1036 -784 322
-319 566 -632 811 -1040 153 -254 378 -750 461 -1015 97 -311 131 -452 172
-715 48 -311 59 -465 52 -784 -6 -273 -14 -364 -61 -644 -73 -435 -251 -932
-488 -1361 -223 -403 -457 -717 -792 -1061 -314 -322 -703 -622 -1086 -837
-292 -164 -643 -314 -953 -407 -248 -75 -312 -90 -532 -125 -284 -46 -338 -51
-605 -58 -329 -8 -527 8 -923 76 -367 64 -844 225 -1222 414 -88 45 -178 90
-200 101 -126 63 -442 266 -625 403 -412 307 -781 685 -1082 1109 -173 244
-335 529 -451 794 -64 147 -160 402 -181 480 -8 30 -31 111 -51 180 -51 178
-91 385 -117 610 -19 165 -22 246 -22 525 0 490 34 760 150 1185 275 1015 870
1900 1708 2545 380 292 813 529 1266 693 189 68 219 77 458 138 263 67 433 93
842 128 122 11 614 -4 787 -23z"/>
</g>
</svg>
